<svg width="86" height="99" viewBox="0 0 86 99" fill="none" xmlns="http://www.w3.org/2000/svg">
<path d="M63.5507 98.5H26.5446C22.4323 98.5 19.0987 94.6485 19.0987 89.8974V8.60262C19.0987 3.85152 22.4323 0 26.5446 0H63.5507C67.6629 0 70.9965 3.85152 70.9965 8.60262V89.8974C70.9965 94.6485 67.6629 98.5 63.5507 98.5ZM26.5446 2.15066C23.4604 2.15066 20.9602 5.0393 20.9602 8.60262V89.8974C20.9602 93.4607 23.4604 96.3493 26.5446 96.3493H63.5507C66.6348 96.3493 69.1351 93.4607 69.1351 89.8974V8.60262C69.1351 5.0393 66.6348 2.15066 63.5507 2.15066H26.5446Z" fill="#D46A92"/>
<path d="M47.5159 6.07489H41.697V8.22555H47.5159V6.07489Z" fill="#D46A92"/>
<path d="M69.619 11.8286H18.987V13.9793H69.619V11.8286Z" fill="#D46A92"/>
<path d="M5.39827 19.8542C5.11701 19.8542 4.889 19.5999 4.889 19.2861C4.88675 16.5889 2.9272 14.403 0.509271 14.4005C0.228008 14.4005 0 14.1462 0 13.8324C0 13.5187 0.228008 13.2643 0.509271 13.2643C2.9272 13.2618 4.88675 11.0759 4.889 8.37867C4.889 8.06492 5.11701 7.81057 5.39827 7.81057C5.67953 7.81057 5.90754 8.06492 5.90754 8.37867C5.90979 11.0759 7.86934 13.2618 10.2873 13.2643C10.5685 13.2643 10.7965 13.5187 10.7965 13.8324C10.7965 14.1462 10.5685 14.4005 10.2873 14.4005C7.86934 14.403 5.90979 16.5889 5.90754 19.2861C5.90754 19.5999 5.67953 19.8542 5.39827 19.8542ZM2.79691 13.8324C3.94016 14.4328 4.86005 15.4589 5.39827 16.7342C5.93648 15.4589 6.85637 14.4328 7.99962 13.8324C6.85637 13.232 5.93648 12.2059 5.39827 10.9306C4.86005 12.2059 3.94016 13.232 2.79691 13.8324Z" fill="#D46A92"/>
<path d="M82.0909 74.6277C81.7992 74.6277 81.5627 74.3545 81.5627 74.0174C81.5603 72.1983 80.2846 70.7244 78.7101 70.7217C78.4183 70.7217 78.1818 70.4484 78.1818 70.1113C78.1818 69.7743 78.4183 69.501 78.7101 69.501C80.2846 69.4983 81.5603 68.0244 81.5627 66.2053C81.5627 65.8682 81.7992 65.595 82.0909 65.595C82.3827 65.595 82.6192 65.8682 82.6192 66.2053C82.6203 68.0249 83.8968 69.4997 85.4718 69.501C85.7635 69.501 86 69.7743 86 70.1113C86 70.4484 85.7635 70.7217 85.4718 70.7217C83.8968 70.723 82.6203 72.1978 82.6192 74.0174C82.6192 74.3545 82.3827 74.6277 82.0909 74.6277ZM80.671 70.1113C81.2589 70.5074 81.7481 71.0726 82.0909 71.7519C82.4326 71.0732 82.9203 70.5081 83.5066 70.1113C82.9187 69.7153 82.4295 69.1501 82.0867 68.4708C81.745 69.1495 81.2573 69.7146 80.671 70.1113Z" fill="#D46A92"/>
<path d="M65.6486 59.0481C65.2778 58.3983 64.6682 57.9239 63.9533 57.7287C63.2384 57.5335 62.4764 57.6335 61.8339 58.0067L55.0221 61.9954C54.6501 61.4302 54.0894 61.0201 53.4431 60.8406L43.0192 58.0138C42.217 57.7943 41.3727 57.787 40.5669 57.9925L36.899 58.9206V57.702C36.899 57.5141 36.8254 57.3339 36.6944 57.2011C36.5633 57.0682 36.3856 56.9936 36.2003 56.9936H30.6111C30.4258 56.9936 30.2481 57.0682 30.1171 57.2011C29.9861 57.3339 29.9125 57.5141 29.9125 57.702V58.4105H25.0219C24.8366 58.4105 24.6589 58.4851 24.5279 58.618C24.3968 58.7509 24.3232 58.9311 24.3232 59.119V69.0376C24.3232 69.2255 24.3968 69.4057 24.5279 69.5385C24.6589 69.6714 24.8366 69.746 25.0219 69.746H29.9125V70.4545C29.9125 70.6424 29.9861 70.8226 30.1171 70.9555C30.2481 71.0883 30.4258 71.163 30.6111 71.163H36.2003C36.3856 71.163 36.5633 71.0883 36.6944 70.9555C36.8254 70.8226 36.899 70.6424 36.899 70.4545V69.4768L37.8003 69.9302C38.4797 70.2732 39.2281 70.4526 39.987 70.4545H50.4459C51.3048 70.4564 52.1488 70.2266 52.8912 69.7886L64.6286 62.9164C65.2679 62.5389 65.734 61.9203 65.9251 61.1955C66.1162 60.4708 66.0168 59.6988 65.6486 59.0481V59.0481ZM29.9125 68.3291H25.7205V59.8274H29.9125V68.3291ZM35.5017 69.746H31.3098V58.4105H35.5017V69.746ZM63.9299 61.6907L52.1925 68.5629C51.6617 68.8744 51.0592 69.0381 50.4459 69.0376H39.987C39.4435 69.0387 38.9074 68.9101 38.4221 68.6621L36.899 67.8899V60.3801L40.9023 59.3669C41.4784 59.2192 42.0822 59.2241 42.6559 59.3811L53.0798 62.215C53.348 62.2856 53.5893 62.4358 53.7727 62.6464C53.9562 62.857 54.0734 63.1183 54.1094 63.3969C54.1455 63.6754 54.0986 63.9586 53.9749 64.21C53.8512 64.4614 53.6563 64.6697 53.4152 64.808C53.2577 64.9022 53.0831 64.9633 52.9019 64.9876C52.7206 65.012 52.5364 64.9991 52.3602 64.9497L44.0253 62.6826C43.8455 62.6337 43.654 62.6593 43.4929 62.7536C43.3317 62.848 43.2141 63.0033 43.1659 63.1856C43.1177 63.3679 43.1429 63.5621 43.236 63.7255C43.329 63.8889 43.4822 64.0082 43.662 64.057L51.9969 66.317C52.2339 66.3817 52.4781 66.4151 52.7235 66.4162C53.2123 66.4169 53.6924 66.2848 54.1138 66.0337C54.4331 65.8487 54.7131 65.6013 54.9373 65.3057C55.1616 65.0102 55.3258 64.6725 55.4203 64.3121C55.4978 63.9997 55.5238 63.6766 55.4972 63.3556L62.5326 59.2394C62.8536 59.0587 63.2313 59.0117 63.5859 59.1082C63.9406 59.2047 64.2443 59.4372 64.4329 59.7566C64.6185 60.0809 64.6697 60.4665 64.5754 60.829C64.4812 61.1916 64.249 61.5014 63.9299 61.6907V61.6907Z" fill="#D46A92"/>
<path d="M33.4057 68.3291C33.591 68.3291 33.7687 68.2545 33.8998 68.1216C34.0308 67.9887 34.1044 67.8085 34.1044 67.6206V66.9122C34.1044 66.7243 34.0308 66.5441 33.8998 66.4112C33.7687 66.2783 33.591 66.2037 33.4057 66.2037C33.2205 66.2037 33.0427 66.2783 32.9117 66.4112C32.7807 66.5441 32.7071 66.7243 32.7071 66.9122V67.6206C32.7071 67.8085 32.7807 67.9887 32.9117 68.1216C33.0427 68.2545 33.2205 68.3291 33.4057 68.3291Z" fill="#D46A92"/>
<path d="M44.1184 47.2038H43.2839V48.8354H44.1184V47.2038Z" fill="#D46A92"/>
<path d="M54.9669 47.2038H54.1324V48.8354H54.9669V47.2038Z" fill="#D46A92"/>
<path d="M48.4996 43.1247V44.1191C47.99 44.1536 47.5137 44.3589 47.1657 44.6942C46.8176 45.0295 46.6235 45.47 46.6219 45.9279V46.3486C46.6226 46.8319 46.8371 47.2952 47.2184 47.6369C47.5998 47.9786 48.1168 48.1708 48.656 48.1714H49.5948C49.8025 48.1717 50.0014 48.2458 50.1481 48.3775C50.2948 48.5092 50.3772 48.6876 50.3772 48.8736V49.2943C50.3769 49.4802 50.2943 49.6583 50.1477 49.7897C50.001 49.9211 49.8022 49.9951 49.5948 49.9954H48.656C48.4486 49.9951 48.2498 49.9211 48.1032 49.7897C47.9566 49.6583 47.874 49.4802 47.8737 49.2943H46.6219C46.6236 49.7522 46.8178 50.1927 47.1658 50.5279C47.5138 50.8632 47.9901 51.0686 48.4996 51.1031V52.0987H49.7513V51.1031C50.2608 51.0686 50.737 50.8632 51.085 50.5279C51.433 50.1927 51.6273 49.7522 51.629 49.2943V48.8736C51.6283 48.3904 51.4138 47.9271 51.0324 47.5854C50.6511 47.2436 50.1341 47.0514 49.5948 47.0508H48.656C48.4486 47.0505 48.2498 46.9766 48.1032 46.8451C47.9566 46.7137 47.874 46.5356 47.8737 46.3497V45.9291C47.874 45.7432 47.9566 45.5651 48.1032 45.4336C48.2498 45.3022 48.4486 45.2283 48.656 45.228H49.5948C49.8022 45.2283 50.001 45.3022 50.1477 45.4336C50.2943 45.5651 50.3769 45.7432 50.3772 45.9291H51.629C51.6277 45.471 51.4337 45.0301 51.0856 44.6946C50.7376 44.3591 50.2611 44.1536 49.7513 44.1191V43.1247H48.4996Z" fill="#D46A92"/>
<path d="M34.168 49.8862C34.2152 49.9786 34.286 50.056 34.3728 50.11C34.4595 50.164 34.559 50.1926 34.6604 50.1926H34.6699L36.113 50.1674C36.5458 51.7936 38.3756 56.9936 44.0776 56.9936C44.3176 56.9936 44.5648 56.984 44.8192 56.9649C44.9558 56.9541 45.0838 56.8918 45.1785 56.7899C45.2733 56.6879 45.3282 56.5536 45.3327 56.4125C45.3371 56.2715 45.2909 56.1337 45.2028 56.0257C45.1147 55.9176 44.991 55.8467 44.8553 55.8268C43.1434 55.4816 41.6169 54.4945 40.5715 53.0567H43.1663C44.1501 54.27 45.4619 55.155 46.9351 55.5993C48.4084 56.0435 49.9766 56.027 51.4408 55.5518C51.7317 55.7895 52.0919 55.9194 52.4633 55.9207H61.9211C62.3638 55.9207 62.7883 55.7397 63.1013 55.4174C63.4143 55.0951 63.5901 54.658 63.5901 54.2023V53.6295C63.5901 53.1737 63.4143 52.7366 63.1013 52.4144C62.7883 52.0921 62.3638 51.9111 61.9211 51.9111H61.2624C61.3283 51.7276 61.3629 51.5338 61.3648 51.3383V50.7654C61.3633 50.3413 61.2086 49.933 60.9308 49.6198C61.2086 49.3067 61.3633 48.8983 61.3648 48.4742V47.9014C61.3633 47.4773 61.2086 47.0689 60.9308 46.7558C61.2086 46.4427 61.3633 46.0343 61.3648 45.6102V45.0374C61.3648 44.5816 61.1889 44.1445 60.8759 43.8223C60.5629 43.5 60.1384 43.319 59.6957 43.319H55.5082C54.8445 42.3394 53.9765 41.5249 52.9677 40.9352C51.9589 40.3455 50.8348 39.9955 49.6777 39.9108C49.6777 39.901 49.6816 39.8919 49.6816 39.8821V39.3093C49.6801 38.9125 49.5439 38.5288 49.2966 38.2244L53.0452 34.3677L57.1065 38.0251C57.216 38.1244 57.3591 38.1754 57.5047 38.1671C57.6504 38.1589 57.7871 38.092 57.8854 37.981L63.0338 32.191V33.5085H64.1465V30.6445C64.1465 30.4925 64.0879 30.3468 63.9835 30.2394C63.8792 30.132 63.7377 30.0717 63.5901 30.0717H60.8084V31.2173H62.3901L57.4275 36.7907L53.3857 33.1499C53.2795 33.0544 53.142 33.0039 53.001 33.0088C52.86 33.0137 52.7261 33.0736 52.6263 33.1763L49.6605 36.2299C49.6185 35.8837 49.4744 35.559 49.2477 35.2997C49.5255 34.9865 49.6802 34.5782 49.6816 34.154V33.5812C49.6816 33.1255 49.5058 32.6884 49.1928 32.3661C48.8798 32.0439 48.4552 31.8628 48.0126 31.8628H38.5548C38.1121 31.8628 37.6876 32.0439 37.3746 32.3661C37.0616 32.6884 36.8858 33.1255 36.8858 33.5812V34.154C36.8872 34.5782 37.0419 34.9865 37.3197 35.2997C37.0419 35.6128 36.8872 36.0212 36.8858 36.4453V37.0181C36.8872 37.4422 37.0419 37.8506 37.3197 38.1637C37.0419 38.4768 36.8872 38.8852 36.8858 39.3093V39.8821C36.8872 40.3062 37.0419 40.7146 37.3197 41.0277C37.0419 41.3409 36.8872 41.7492 36.8858 42.1733V42.7461C36.8872 43.1703 37.0419 43.5786 37.3197 43.8918C37.0419 44.2049 36.8872 44.6133 36.8858 45.0374V45.4269L34.2081 49.287C34.1482 49.3733 34.1128 49.475 34.1057 49.5808C34.0986 49.6866 34.1202 49.7923 34.168 49.8862ZM39.8828 51.9111C39.6152 51.3624 39.4039 50.7865 39.2524 50.1926H41.6647C41.8391 50.7928 42.0819 51.3696 42.388 51.9111H39.8828ZM37.9984 45.0374C37.9984 44.8855 38.0571 44.7398 38.1614 44.6323C38.2657 44.5249 38.4072 44.4646 38.5548 44.4646H42.0987C41.8429 45.0127 41.6491 45.5893 41.5212 46.183H38.651L37.9984 45.3988V45.0374ZM37.9984 42.7461V42.1733C37.9984 42.0214 38.0571 41.8757 38.1614 41.7683C38.2657 41.6609 38.4072 41.6005 38.5548 41.6005H44.3229C43.7169 42.0903 43.1844 42.6693 42.7424 43.319H38.5548C38.4072 43.319 38.2657 43.2586 38.1614 43.1512C38.0571 43.0438 37.9984 42.8981 37.9984 42.7461ZM37.9984 39.8821V39.3093C37.9984 39.1574 38.0571 39.0117 38.1614 38.9043C38.2657 38.7969 38.4072 38.7365 38.5548 38.7365H48.0126C48.1601 38.7365 48.3016 38.7969 48.406 38.9043C48.5103 39.0117 48.5689 39.1574 48.5689 39.3093V39.8821C48.5689 39.8919 48.5656 39.9016 48.565 39.9113C47.7712 39.9687 46.9907 40.1521 46.2512 40.4549H38.5548C38.4817 40.4549 38.4094 40.4401 38.3419 40.4113C38.2744 40.3825 38.2131 40.3403 38.1614 40.2872C38.1097 40.234 38.0688 40.1708 38.0408 40.1013C38.0128 40.0318 37.9984 39.9573 37.9984 39.8821ZM37.9984 37.0181V36.4453C37.9984 36.2934 38.0571 36.1477 38.1614 36.0402C38.2657 35.9328 38.4072 35.8725 38.5548 35.8725H48.0126C48.1601 35.8725 48.3016 35.9328 48.406 36.0402C48.5103 36.1477 48.5689 36.2934 48.5689 36.4453V37.0181C48.5689 37.17 48.5103 37.3157 48.406 37.4231C48.3016 37.5305 48.1601 37.5909 48.0126 37.5909H38.5548C38.4817 37.5909 38.4094 37.5761 38.3419 37.5473C38.2744 37.5185 38.2131 37.4763 38.1614 37.4231C38.1097 37.3699 38.0688 37.3068 38.0408 37.2373C38.0128 37.1678 37.9984 37.0933 37.9984 37.0181ZM41.3649 47.3286C41.3515 47.5188 41.3365 47.7078 41.3365 47.9014C41.3393 48.285 41.369 48.6679 41.4255 49.047H41.0361L39.6057 47.3286H41.3649ZM62.4775 53.6295V54.2023C62.4775 54.3542 62.4188 54.4999 62.3145 54.6073C62.2102 54.7147 62.0687 54.7751 61.9211 54.7751H52.4633C52.3158 54.7751 52.1743 54.7147 52.0699 54.6073C51.9656 54.4999 51.907 54.3542 51.907 54.2023V53.6295C51.907 53.4776 51.9656 53.3319 52.0699 53.2244C52.1743 53.117 52.3158 53.0567 52.4633 53.0567H61.9211C62.0687 53.0567 62.2102 53.117 62.3145 53.2244C62.4188 53.3319 62.4775 53.4776 62.4775 53.6295ZM55.8665 51.9111C56.1732 51.37 56.416 50.7931 56.5897 50.1926H59.6957C59.8433 50.1926 59.9848 50.253 60.0891 50.3604C60.1935 50.4678 60.2521 50.6135 60.2521 50.7654V51.3383C60.2521 51.4902 60.1935 51.6359 60.0891 51.7433C59.9848 51.8507 59.8433 51.9111 59.6957 51.9111H55.8665ZM56.8857 47.3286H59.6957C59.8433 47.3286 59.9848 47.389 60.0891 47.4964C60.1935 47.6038 60.2521 47.7495 60.2521 47.9014V48.4742C60.2521 48.6261 60.1935 48.7718 60.0891 48.8793C59.9848 48.9867 59.8433 49.047 59.6957 49.047H56.8306C56.8845 48.6676 56.9124 48.2848 56.914 47.9014C56.914 47.7078 56.899 47.5188 56.8857 47.3286ZM59.6957 44.4646C59.8433 44.4646 59.9848 44.5249 60.0891 44.6323C60.1935 44.7398 60.2521 44.8855 60.2521 45.0374V45.6102C60.2521 45.7621 60.1935 45.9078 60.0891 46.0152C59.9848 46.1226 59.8433 46.183 59.6957 46.183H56.7293C56.6014 45.5893 56.4076 45.0127 56.1519 44.4646H59.6957ZM55.8014 47.9014C55.8045 49.3417 55.3632 50.7457 54.5412 51.9111H52.4633C52.0207 51.9111 51.5961 52.0921 51.2831 52.4144C50.9701 52.7366 50.7943 53.1737 50.7943 53.6295V54.2023C50.7944 54.3177 50.8057 54.4329 50.8282 54.546C49.4804 54.9121 48.0552 54.8346 46.7523 54.3245C45.4494 53.8144 44.3343 52.8972 43.5633 51.7015C42.7924 50.5059 42.4042 49.0918 42.4533 47.6575C42.5024 46.2233 42.9863 44.8408 43.8371 43.704C44.688 42.5672 45.863 41.7332 47.1976 41.3188C48.5321 40.9044 49.9591 40.9305 51.2785 41.3933C52.5979 41.8562 53.7435 42.7327 54.5546 43.8998C55.3658 45.067 55.8017 46.4663 55.8014 47.9014ZM37.9984 33.5812C37.9984 33.4293 38.0571 33.2836 38.1614 33.1762C38.2657 33.0688 38.4072 33.0084 38.5548 33.0084H48.0126C48.1601 33.0084 48.3016 33.0688 48.406 33.1762C48.5103 33.2836 48.5689 33.4293 48.5689 33.5812V34.154C48.5689 34.306 48.5103 34.4517 48.406 34.5591C48.3016 34.6665 48.1601 34.7269 48.0126 34.7269H38.5548C38.4072 34.7269 38.2657 34.6665 38.1614 34.5591C38.0571 34.4517 37.9984 34.306 37.9984 34.154V33.5812ZM37.4816 46.5381L39.5707 49.047H38.5548C38.4728 49.0471 38.3918 49.0658 38.3177 49.1018C38.2436 49.1379 38.1781 49.1903 38.1259 49.2555C38.0738 49.3206 38.0363 49.3968 38.0161 49.4786C37.9958 49.5604 37.9934 49.6458 38.009 49.7287C38.3471 51.8414 39.4063 53.7606 40.996 55.1411C37.8555 53.5281 37.1339 49.6995 37.0966 49.4852C37.0735 49.353 37.0061 49.2334 36.906 49.1472C36.8059 49.0611 36.6796 49.0138 36.5492 49.0138H36.5397L35.7547 49.0281L37.4816 46.5381Z" fill="#D46A92"/>
</svg>
