<svg width="118" height="133" viewBox="0 0 118 133" fill="none" xmlns="http://www.w3.org/2000/svg">
<path d="M87.1974 133H36.4217C30.7793 133 26.2052 127.799 26.2052 121.384V11.6157C26.2052 5.20054 30.7793 0 36.4217 0H87.1974C92.8398 0 97.4139 5.20054 97.4139 11.6157V121.384C97.4139 127.799 92.8398 133 87.1974 133ZM36.4217 2.90393C32.1899 2.90393 28.7593 6.80433 28.7593 11.6157V121.384C28.7593 126.196 32.1899 130.096 36.4217 130.096H87.1974C91.4292 130.096 94.8597 126.196 94.8597 121.384V11.6157C94.8597 6.80433 91.4292 2.90393 87.1974 2.90393H36.4217Z" fill="#D46A92"/>
<path d="M65.1963 8.20264H57.2121V11.1066H65.1963V8.20264Z" fill="#D46A92"/>
<path d="M95.5238 15.9716H26.052V18.8756H95.5238V15.9716Z" fill="#D46A92"/>
<path d="M7.40693 26.8083C7.02101 26.8083 6.70816 26.4648 6.70816 26.0412C6.70508 22.3992 4.01639 19.4477 0.698767 19.4443C0.312848 19.4443 0 19.1009 0 18.6773C0 18.2536 0.312848 17.9102 0.698767 17.9102C4.01639 17.9068 6.70508 14.9553 6.70816 11.3133C6.70816 10.8897 7.02101 10.5462 7.40693 10.5462C7.79284 10.5462 8.10569 10.8897 8.10569 11.3133C8.10877 14.9553 10.7975 17.9068 14.1151 17.9102C14.501 17.9102 14.8139 18.2536 14.8139 18.6773C14.8139 19.1009 14.501 19.4443 14.1151 19.4443C10.7975 19.4477 8.10877 22.3992 8.10569 26.0412C8.10569 26.4648 7.79284 26.8083 7.40693 26.8083ZM3.83763 18.6773C5.40627 19.4879 6.66844 20.8735 7.40693 22.5955C8.14541 20.8735 9.40758 19.4879 10.9762 18.6773C9.40758 17.8666 8.14541 16.481 7.40693 14.759C6.66844 16.481 5.40627 17.8666 3.83763 18.6773Z" fill="#D46A92"/>
<path d="M112.636 100.766C112.236 100.766 111.912 100.397 111.912 99.9423C111.908 97.4861 110.158 95.4958 107.998 95.4922C107.597 95.4922 107.273 95.1232 107.273 94.6681C107.273 94.213 107.597 93.844 107.998 93.844C110.158 93.8404 111.908 91.8501 111.912 89.3939C111.912 88.9388 112.236 88.5699 112.636 88.5699C113.037 88.5699 113.361 88.9388 113.361 89.3939C113.363 91.8509 115.114 93.8422 117.275 93.844C117.675 93.844 118 94.213 118 94.6681C118 95.1232 117.675 95.4922 117.275 95.4922C115.114 95.494 113.363 97.4853 113.361 99.9423C113.361 100.397 113.037 100.766 112.636 100.766ZM110.688 94.6681C111.495 95.2029 112.166 95.9661 112.636 96.8833C113.105 95.9669 113.774 95.2038 114.579 94.6681C113.772 94.1333 113.101 93.3701 112.631 92.453C112.162 93.3693 111.493 94.1324 110.688 94.6681Z" fill="#D46A92"/>
<path d="M90.076 79.73C89.5672 78.8525 88.7308 78.212 87.7499 77.9484C86.769 77.6849 85.7234 77.8198 84.8419 78.3237L75.4954 83.7095C74.985 82.9463 74.2157 82.3926 73.3289 82.1502L59.0263 78.3333C57.9256 78.0369 56.7672 78.027 55.6616 78.3046L50.6288 79.5578V77.9124C50.6288 77.6587 50.5278 77.4154 50.3481 77.236C50.1683 77.0566 49.9245 76.9558 49.6702 76.9558H42.0013C41.747 76.9558 41.5032 77.0566 41.3234 77.236C41.1437 77.4154 41.0427 77.6587 41.0427 77.9124V78.869H34.3323C34.0781 78.869 33.8343 78.9698 33.6545 79.1492C33.4747 79.3286 33.3737 79.5719 33.3737 79.8256V93.2182C33.3737 93.472 33.4747 93.7153 33.6545 93.8947C33.8343 94.0741 34.0781 94.1749 34.3323 94.1749H41.0427V95.1315C41.0427 95.3852 41.1437 95.6285 41.3234 95.8079C41.5032 95.9873 41.747 96.0881 42.0013 96.0881H49.6702C49.9245 96.0881 50.1683 95.9873 50.3481 95.8079C50.5278 95.6285 50.6288 95.3852 50.6288 95.1315V93.8113L51.8655 94.4236C52.7978 94.8867 53.8245 95.1289 54.8659 95.1315H69.2164C70.395 95.134 71.5529 94.8237 72.5716 94.2323L88.6764 84.9531C89.5536 84.4434 90.1932 83.6081 90.4554 82.6295C90.7176 81.6509 90.5812 80.6085 90.076 79.73V79.73ZM41.0427 92.2616H35.291V80.7822H41.0427V92.2616ZM48.7116 94.1749H42.9599V78.869H48.7116V94.1749ZM87.7178 83.2981L71.613 92.5773C70.8847 92.9979 70.0579 93.219 69.2164 93.2182H54.8659C54.1202 93.2198 53.3846 93.0461 52.7186 92.7112L50.6288 91.6685V81.5284L56.1217 80.1604C56.9122 79.961 57.7407 79.9675 58.5278 80.1796L72.8304 84.006C73.1984 84.1014 73.5294 84.3042 73.7811 84.5885C74.0328 84.8728 74.1937 85.2257 74.2432 85.6019C74.2926 85.978 74.2283 86.3603 74.0586 86.6998C73.8889 87.0393 73.6215 87.3204 73.2906 87.5072C73.0745 87.6344 72.835 87.7169 72.5863 87.7498C72.3376 87.7826 72.0848 87.7652 71.8431 87.6986L60.4067 84.6374C60.1601 84.5714 59.8974 84.6059 59.6762 84.7333C59.4551 84.8607 59.2937 85.0705 59.2276 85.3166C59.1615 85.5627 59.1961 85.8249 59.3238 86.0456C59.4514 86.2662 59.6616 86.4273 59.9083 86.4932L71.3446 89.5448C71.6697 89.6322 72.0048 89.6772 72.3415 89.6788C73.0122 89.6797 73.671 89.5013 74.2492 89.1622C74.6873 88.9125 75.0714 88.5784 75.3791 88.1793C75.6869 87.7803 75.9121 87.3242 76.0418 86.8376C76.1481 86.4159 76.1838 85.9795 76.1472 85.5462L85.8005 79.9882C86.241 79.7443 86.7593 79.6807 87.2458 79.811C87.7324 79.9413 88.1491 80.2553 88.408 80.6866C88.6626 81.1244 88.7329 81.6451 88.6035 82.1346C88.4741 82.6241 88.1556 83.0425 87.7178 83.2981V83.2981Z" fill="#D46A92"/>
<path d="M45.8358 92.2616C46.09 92.2616 46.3339 92.1608 46.5136 91.9814C46.6934 91.802 46.7944 91.5587 46.7944 91.305V90.3484C46.7944 90.0947 46.6934 89.8514 46.5136 89.672C46.3339 89.4926 46.09 89.3918 45.8358 89.3918C45.5815 89.3918 45.3377 89.4926 45.1579 89.672C44.9782 89.8514 44.8772 90.0947 44.8772 90.3484V91.305C44.8772 91.5587 44.9782 91.802 45.1579 91.9814C45.3377 92.1608 45.5815 92.2616 45.8358 92.2616Z" fill="#D46A92"/>
<path d="M60.5346 63.7371H59.3896V65.9402H60.5346V63.7371Z" fill="#D46A92"/>
<path d="M75.4198 63.7371H74.2747V65.9402H75.4198V63.7371Z" fill="#D46A92"/>
<path d="M66.5459 58.2293V59.572C65.8468 59.6185 65.1932 59.8958 64.7157 60.3485C64.2382 60.8012 63.9718 61.3961 63.9696 62.0144V62.5823C63.9705 63.2349 64.2649 63.8605 64.7881 64.3219C65.3113 64.7833 66.0207 65.0428 66.7606 65.0436H68.0488C68.3336 65.044 68.6066 65.1441 68.8079 65.3219C69.0092 65.4997 69.1222 65.7406 69.1222 65.9918V66.5598C69.1218 66.8107 69.0085 67.0513 68.8073 67.2287C68.6061 67.4062 68.3333 67.506 68.0488 67.5064H66.7606C66.4761 67.506 66.2033 67.4062 66.0021 67.2287C65.8009 67.0513 65.6876 66.8107 65.6872 66.5598H63.9696C63.972 67.178 64.2384 67.7728 64.7159 68.2255C65.1934 68.6782 65.8469 68.9555 66.5459 69.0022V70.3464H68.2634V69.0022C68.9625 68.9555 69.6159 68.6782 70.0934 68.2255C70.5709 67.7728 70.8374 67.178 70.8397 66.5598V65.9918C70.8388 65.3393 70.5445 64.7137 70.0213 64.2523C69.4981 63.7909 68.7887 63.5313 68.0488 63.5305H66.7606C66.4761 63.5301 66.2033 63.4302 66.0021 63.2528C65.8009 63.0754 65.6876 62.8348 65.6872 62.5839V62.0159C65.6876 61.7649 65.8009 61.5244 66.0021 61.3469C66.2033 61.1695 66.4761 61.0696 66.7606 61.0692H68.0488C68.3333 61.0696 68.6061 61.1695 68.8073 61.3469C69.0085 61.5244 69.1218 61.7649 69.1222 62.0159H70.8397C70.838 61.3973 70.5718 60.8021 70.0942 60.349C69.6167 59.896 68.9629 59.6185 68.2634 59.572V58.2293H66.5459Z" fill="#D46A92"/>
<path d="M46.8817 67.359C46.9464 67.4838 47.0436 67.5883 47.1626 67.6612C47.2817 67.7342 47.4182 67.7727 47.5573 67.7728H47.5703L49.5504 67.7388C50.1443 69.9345 52.655 76.9558 60.4786 76.9558C60.8078 76.9558 61.147 76.9429 61.4961 76.9171C61.6836 76.9025 61.8592 76.8183 61.9892 76.6807C62.1192 76.5431 62.1945 76.3616 62.2006 76.1712C62.2068 75.9808 62.1433 75.7948 62.0225 75.6488C61.9016 75.5029 61.7319 75.4073 61.5457 75.3803C59.1968 74.9143 57.1022 73.5814 55.6679 71.64H59.2282C60.578 73.2783 62.378 74.4732 64.3994 75.0731C66.4208 75.673 68.5726 75.6507 70.5815 75.009C70.9807 75.33 71.4749 75.5054 71.9846 75.5071H84.9615C85.5689 75.5071 86.1514 75.2627 86.5808 74.8275C87.0103 74.3924 87.2516 73.8022 87.2516 73.1868V72.4134C87.2516 71.798 87.0103 71.2078 86.5808 70.7727C86.1514 70.3375 85.5689 70.0931 84.9615 70.0931H84.0577C84.1481 69.8454 84.1956 69.5837 84.1982 69.3197V68.5462C84.1962 67.9736 83.9839 67.4222 83.6028 66.9994C83.9839 66.5765 84.1962 66.0251 84.1982 65.4525V64.679C84.1962 64.1064 83.9839 63.555 83.6028 63.1322C83.9839 62.7094 84.1962 62.158 84.1982 61.5853V60.8119C84.1982 60.1965 83.9569 59.6063 83.5274 59.1712C83.098 58.736 82.5155 58.4916 81.9081 58.4916H76.1624C75.2517 57.1689 74.0608 56.0692 72.6766 55.2729C71.2925 54.4767 69.7501 54.0041 68.1624 53.8896C68.1624 53.8765 68.1678 53.8641 68.1678 53.851V53.0775C68.1657 52.5418 67.9789 52.0236 67.6396 51.6126L72.783 46.4051L78.3555 51.3435C78.5057 51.4775 78.702 51.5464 78.9019 51.5353C79.1018 51.5241 79.2893 51.4339 79.4242 51.2839L86.4882 43.4661V45.245H88.0149V41.3778C88.0149 41.1727 87.9345 40.9759 87.7914 40.8309C87.6482 40.6858 87.454 40.6044 87.2516 40.6044H83.4348V42.1512H85.605L78.7959 49.6767L73.2502 44.7608C73.1044 44.6318 72.9157 44.5637 72.7223 44.5703C72.5288 44.5769 72.3451 44.6577 72.2082 44.7964L68.1388 48.9195C68.0812 48.452 67.8835 48.0137 67.5724 47.6635C67.9536 47.2407 68.1658 46.6893 68.1678 46.1166V45.3432C68.1678 44.7278 67.9265 44.1376 67.4971 43.7025C67.0676 43.2673 66.4851 43.0229 65.8777 43.0229H52.9008C52.2934 43.0229 51.7109 43.2673 51.2814 43.7025C50.852 44.1376 50.6107 44.7278 50.6107 45.3432V46.1166C50.6127 46.6893 50.8249 47.2407 51.2061 47.6635C50.8249 48.0863 50.6127 48.6377 50.6107 49.2104V49.9838C50.6127 50.5564 50.8249 51.1079 51.2061 51.5307C50.8249 51.9535 50.6127 52.5049 50.6107 53.0775V53.851C50.6127 54.4236 50.8249 54.975 51.2061 55.3978C50.8249 55.8206 50.6127 56.3721 50.6107 56.9447V57.7181C50.6127 58.2908 50.8249 58.8422 51.2061 59.265C50.8249 59.6878 50.6127 60.2392 50.6107 60.8119V61.3378L46.9367 66.55C46.8545 66.6665 46.8059 66.8038 46.7962 66.9466C46.7865 67.0894 46.8161 67.2322 46.8817 67.359ZM54.7229 70.0931C54.3557 69.3523 54.0658 68.5746 53.858 67.7728H57.1679C57.4072 68.5832 57.7403 69.362 58.1603 70.0931H54.7229ZM52.1374 60.8119C52.1374 60.6067 52.2178 60.41 52.361 60.265C52.5041 60.1199 52.6983 60.0384 52.9008 60.0384H57.7633C57.4124 60.7786 57.1465 61.5571 56.9709 62.3587H53.0328L52.1374 61.2999V60.8119ZM52.1374 57.7181V56.9447C52.1374 56.7396 52.2178 56.5428 52.361 56.3978C52.5041 56.2528 52.6983 56.1713 52.9008 56.1713H60.8152C59.9837 56.8326 59.253 57.6144 58.6465 58.4916H52.9008C52.6983 58.4916 52.5041 58.4101 52.361 58.265C52.2178 58.12 52.1374 57.9233 52.1374 57.7181ZM52.1374 53.851V53.0775C52.1374 52.8724 52.2178 52.6757 52.361 52.5306C52.5041 52.3856 52.6983 52.3041 52.9008 52.3041H65.8777C66.0802 52.3041 66.2744 52.3856 66.4175 52.5306C66.5607 52.6757 66.6411 52.8724 66.6411 53.0775V53.851C66.6411 53.8641 66.6365 53.8773 66.6357 53.8904C65.5465 53.9679 64.4756 54.2155 63.461 54.6244H52.9008C52.8005 54.6244 52.7012 54.6044 52.6086 54.5655C52.516 54.5267 52.4319 54.4697 52.361 54.3979C52.2901 54.326 52.2339 54.2408 52.1955 54.1469C52.1572 54.0531 52.1374 53.9525 52.1374 53.851ZM52.1374 49.9838V49.2104C52.1374 49.0052 52.2178 48.8085 52.361 48.6635C52.5041 48.5184 52.6983 48.4369 52.9008 48.4369H65.8777C66.0802 48.4369 66.2744 48.5184 66.4175 48.6635C66.5607 48.8085 66.6411 49.0052 66.6411 49.2104V49.9838C66.6411 50.1889 66.5607 50.3856 66.4175 50.5307C66.2744 50.6757 66.0802 50.7572 65.8777 50.7572H52.9008C52.8005 50.7572 52.7012 50.7372 52.6086 50.6984C52.516 50.6595 52.4319 50.6025 52.361 50.5307C52.2901 50.4589 52.2339 50.3736 52.1955 50.2798C52.1572 50.1859 52.1374 50.0854 52.1374 49.9838ZM56.7564 63.9056C56.7381 64.1624 56.7175 64.4176 56.7175 64.679C56.7214 65.197 56.7622 65.714 56.8397 66.2259H56.3053L54.3427 63.9056H56.7564ZM85.7249 72.4134V73.1868C85.7249 73.392 85.6445 73.5887 85.5013 73.7337C85.3581 73.8788 85.164 73.9603 84.9615 73.9603H71.9846C71.7821 73.9603 71.5879 73.8788 71.4448 73.7337C71.3016 73.5887 71.2212 73.392 71.2212 73.1868V72.4134C71.2212 72.2083 71.3016 72.0115 71.4448 71.8665C71.5879 71.7214 71.7821 71.64 71.9846 71.64H84.9615C85.164 71.64 85.3581 71.7214 85.5013 71.8665C85.6445 72.0115 85.7249 72.2083 85.7249 72.4134ZM76.654 70.0931C77.0749 69.3625 77.408 68.5835 77.6463 67.7728H81.9081C82.1106 67.7728 82.3047 67.8543 82.4479 67.9993C82.5911 68.1444 82.6715 68.3411 82.6715 68.5462V69.3197C82.6715 69.5248 82.5911 69.7215 82.4479 69.8666C82.3047 70.0116 82.1106 70.0931 81.9081 70.0931H76.654ZM78.0524 63.9056H81.9081C82.1106 63.9056 82.3047 63.9871 82.4479 64.1321C82.5911 64.2772 82.6715 64.4739 82.6715 64.679V65.4525C82.6715 65.6576 82.5911 65.8543 82.4479 65.9994C82.3047 66.1444 82.1106 66.2259 81.9081 66.2259H77.9769C78.0508 65.7137 78.0891 65.1968 78.0914 64.679C78.0914 64.4176 78.0708 64.1624 78.0524 63.9056ZM81.9081 60.0384C82.1106 60.0384 82.3047 60.1199 82.4479 60.265C82.5911 60.41 82.6715 60.6067 82.6715 60.8119V61.5853C82.6715 61.7904 82.5911 61.9872 82.4479 62.1322C82.3047 62.2773 82.1106 62.3587 81.9081 62.3587H77.8379C77.6624 61.5571 77.3965 60.7786 77.0456 60.0384H81.9081ZM76.5647 64.679C76.569 66.6237 75.9635 68.5196 74.8357 70.0931H71.9846C71.3772 70.0931 70.7947 70.3375 70.3652 70.7727C69.9358 71.2078 69.6945 71.798 69.6945 72.4134V73.1868C69.6946 73.3427 69.7102 73.4982 69.7411 73.6509C67.8918 74.1452 65.9362 74.0406 64.1485 73.3518C62.3608 72.6631 60.8308 71.4246 59.773 69.8102C58.7151 68.1958 58.1825 66.2864 58.2499 64.3497C58.3173 62.4131 58.9812 60.5465 60.1486 59.0115C61.3161 57.4766 62.9284 56.3504 64.7595 55.7908C66.5906 55.2313 68.5486 55.2665 70.3589 55.8915C72.1693 56.5165 73.7411 57.7 74.8541 59.2759C75.967 60.8519 76.5651 62.7412 76.5647 64.679ZM52.1374 45.3432C52.1374 45.1381 52.2178 44.9413 52.361 44.7963C52.5041 44.6512 52.6983 44.5698 52.9008 44.5698H65.8777C66.0802 44.5698 66.2744 44.6512 66.4175 44.7963C66.5607 44.9413 66.6411 45.1381 66.6411 45.3432V46.1166C66.6411 46.3218 66.5607 46.5185 66.4175 46.6635C66.2744 46.8086 66.0802 46.8901 65.8777 46.8901H52.9008C52.6983 46.8901 52.5041 46.8086 52.361 46.6635C52.2178 46.5185 52.1374 46.3218 52.1374 46.1166V45.3432ZM51.4283 62.8383L54.2946 66.2259H52.9008C52.7883 66.226 52.6772 66.2513 52.5755 66.2999C52.4737 66.3486 52.3839 66.4194 52.3123 66.5074C52.2408 66.5953 52.1893 66.6982 52.1616 66.8087C52.1338 66.9191 52.1305 67.0344 52.1519 67.1463C52.6158 69.999 54.0691 72.5905 56.2503 74.4545C51.9412 72.2765 50.9512 67.1069 50.9 66.8176C50.8683 66.6391 50.7758 66.4776 50.6385 66.3612C50.5012 66.2449 50.3279 66.1811 50.1489 66.1811H50.1359L49.0588 66.2004L51.4283 62.8383Z" fill="#D46A92"/>
</svg>
